<svg aria-hidden="true" style="width:0;height:0;position:absolute;overflow:hidden" xmlns="http://www.w3.org/2000/svg"><defs><symbol id="icon-search" viewBox="0 0 24 24"><path d="M16.041 15.856a.995.995 0 0 0-.186.186A6.97 6.97 0 0 1 11 18c-1.933 0-3.682-.782-4.95-2.05S4 12.933 4 11s.782-3.682 2.05-4.95S9.067 4 11 4s3.682.782 4.95 2.05S18 9.067 18 11a6.971 6.971 0 0 1-1.959 4.856zm5.666 4.437-3.675-3.675A8.967 8.967 0 0 0 20 11c0-2.485-1.008-4.736-2.636-6.364S13.485 2 11 2 6.264 3.008 4.636 4.636 2 8.515 2 11s1.008 4.736 2.636 6.364S8.515 20 11 20a8.967 8.967 0 0 0 5.618-1.968l3.675 3.675a.999.999 0 1 0 1.414-1.414z"/></symbol><symbol id="icon-heart" viewBox="0 0 32 32"><path d="m16 30.144-2.24-2.217C5.44 20.64 0 15.726 0 9.71 0 4.793 3.84.995 8.8.995c2.72.002 5.44 1.269 7.2 3.326A9.64 9.64 0 0 1 23.195.998h.005c4.96 0 8.8 3.801 8.8 8.711 0 6.021-5.44 10.933-13.76 18.217L16 30.145z"/></symbol><symbol id="icon-film" viewBox="0 0 30 28"><path d="M6 25v-2c0-.547-.453-1-1-1H3c-.547 0-1 .453-1 1v2c0 .547.453 1 1 1h2c.547 0 1-.453 1-1zm0-6v-2c0-.547-.453-1-1-1H3c-.547 0-1 .453-1 1v2c0 .547.453 1 1 1h2c.547 0 1-.453 1-1zm0-6v-2c0-.547-.453-1-1-1H3c-.547 0-1 .453-1 1v2c0 .547.453 1 1 1h2c.547 0 1-.453 1-1zm16 12v-8c0-.547-.453-1-1-1H9c-.547 0-1 .453-1 1v8c0 .547.453 1 1 1h12c.547 0 1-.453 1-1zM6 7V5c0-.547-.453-1-1-1H3c-.547 0-1 .453-1 1v2c0 .547.453 1 1 1h2c.547 0 1-.453 1-1zm22 18v-2c0-.547-.453-1-1-1h-2c-.547 0-1 .453-1 1v2c0 .547.453 1 1 1h2c.547 0 1-.453 1-1zm-6-12V5c0-.547-.453-1-1-1H9c-.547 0-1 .453-1 1v8c0 .547.453 1 1 1h12c.547 0 1-.453 1-1zm6 6v-2c0-.547-.453-1-1-1h-2c-.547 0-1 .453-1 1v2c0 .547.453 1 1 1h2c.547 0 1-.453 1-1zm0-6v-2c0-.547-.453-1-1-1h-2c-.547 0-1 .453-1 1v2c0 .547.453 1 1 1h2c.547 0 1-.453 1-1zm0-6V5c0-.547-.453-1-1-1h-2c-.547 0-1 .453-1 1v2c0 .547.453 1 1 1h2c.547 0 1-.453 1-1zm2-2.5v21c0 1.375-1.125 2.5-2.5 2.5h-25A2.507 2.507 0 0 1 0 25.5v-21C0 3.125 1.125 2 2.5 2h25C28.875 2 30 3.125 30 4.5z"/></symbol><symbol id="icon-close" viewBox="0 0 20 32"><path d="M19.413 9.412c.781-.781.781-2.05 0-2.831s-2.05-.781-2.831 0l-6.581 6.587-6.588-6.581c-.781-.781-2.05-.781-2.831 0s-.781 2.05 0 2.831l6.588 6.581-6.581 6.587c-.781.781-.781 2.05 0 2.831s2.05.781 2.831 0l6.581-6.588 6.587 6.581c.781.781 2.05.781 2.831 0s.781-2.05 0-2.831l-6.588-6.581 6.581-6.588z"/></symbol><symbol id="icon-dots" viewBox="0 0 20 20"><path d="M10.001 7.8a2.2 2.2 0 1 0 0 4.402A2.2 2.2 0 0 0 10 7.8zm-7 0a2.2 2.2 0 1 0 0 4.402A2.2 2.2 0 0 0 3 7.8zm14 0a2.2 2.2 0 1 0 0 4.402A2.2 2.2 0 0 0 17 7.8z"/></symbol><symbol id="icon-arrow-right" viewBox="0 0 32 32"><path stroke-linecap="round" stroke-linejoin="round" stroke-width="2.667" d="M6.667 16h18.667M16 25.333 25.333 16 16 6.667"/></symbol><symbol id="icon-arrow-left" viewBox="0 0 32 32"><path stroke-linecap="round" stroke-linejoin="round" stroke-width="2.667" d="M25.333 16H6.666M16 25.333 6.667 16 16 6.667"/></symbol><symbol id="icon-backward" viewBox="0 0 32 32"><path d="M28.719 27.538A1.999 1.999 0 0 0 32 26V6c0-.775-.45-1.481-1.15-1.813s-1.531-.225-2.131.275L18 13.393v5.213l10.719 8.931zM16 22V6c0-.775-.45-1.481-1.15-1.813s-1.531-.225-2.131.275l-12 10a2.003 2.003 0 0 0 0 3.075l12 10A1.999 1.999 0 0 0 16 25.999v-4z"/></symbol><symbol id="icon-forward" viewBox="0 0 32 32"><path d="M3.281 27.538A1.999 1.999 0 0 1 0 26V6c0-.775.45-1.481 1.15-1.813s1.531-.225 2.131.275L14 13.393v5.213L3.281 27.537zM16 22V6c0-.775.45-1.481 1.15-1.813s1.531-.225 2.131.275l12 10a2.003 2.003 0 0 1 0 3.075l-12 10A1.999 1.999 0 0 1 16 25.999v-4z"/></symbol><symbol id="icon-youtube" viewBox="0 0 32 32"><path d="M31.331 8.248A4.023 4.023 0 0 0 28.502 5.4c-2.495-.672-12.501-.672-12.501-.672s-10.007 0-12.503.672A4.02 4.02 0 0 0 .67 8.248C.001 10.76.001 16 .001 16s0 5.24.669 7.752A4.023 4.023 0 0 0 3.499 26.6c2.495.672 12.501.672 12.501.672s10.007 0 12.503-.672a4.023 4.023 0 0 0 2.829-2.848C32 21.24 32 16 32 16s0-5.24-.669-7.752zM12.728 20.759v-9.517l8.363 4.759-8.363 4.759z"/></symbol><symbol id="icon-circle-up" viewBox="0 0 32 32"><path d="M0 16c0 8.837 7.163 16 16 16s16-7.163 16-16S24.837 0 16 0 0 7.163 0 16zm29 0c0 7.18-5.82 13-13 13S3 23.18 3 16 8.82 3 16 3s13 5.82 13 13z"/><path d="m22.086 20.914 2.829-2.829-8.914-8.914-8.914 8.914 2.828 2.828 6.086-6.086z"/></symbol><symbol id="icon-sun" viewBox="0 0 32 32"><path d="M16 26a2 2 0 0 1 2 2v2a2 2 0 1 1-4 0v-2a2 2 0 0 1 2-2zm0-20a2 2 0 0 1-2-2V2a2 2 0 1 1 4 0v2a2 2 0 0 1-2 2zm14 8a2 2 0 1 1 0 4h-2a2 2 0 1 1 0-4h2zM6 16a2 2 0 0 1-2 2H2a2 2 0 1 1 0-4h2a2 2 0 0 1 2 2zm19.899 7.071 1.414 1.414a2 2 0 1 1-2.828 2.828l-1.414-1.414a2 2 0 1 1 2.828-2.828zM6.101 8.929 4.687 7.515a2 2 0 1 1 2.828-2.828l1.414 1.414a2 2 0 1 1-2.828 2.828zm19.798 0a2 2 0 1 1-2.828-2.828l1.414-1.414a2 2 0 1 1 2.828 2.828l-1.414 1.414zM6.101 23.071a2 2 0 1 1 2.828 2.828l-1.414 1.414a2 2 0 1 1-2.828-2.828l1.414-1.414zM16 8a8 8 0 1 0 0 16 8 8 0 0 0 0-16zm0 13a5 5 0 1 1 .001-10.001A5 5 0 0 1 16 21z"/></symbol><symbol id="icon-moon" viewBox="0 0 32 32"><path stroke-linecap="round" stroke-linejoin="round" stroke-width="2" d="M10 8.5c0-1.914.282-3.851 1-5.5-4.777 2.079-8 6.957-8 12.5C3 22.956 9.044 29 16.5 29c5.543 0 10.421-3.223 12.5-8-1.649.718-3.586 1-5.5 1C16.044 22 10 15.956 10 8.5z"/></symbol><symbol id="icon-user" viewBox="0 0 24 24"><path d="M12 22c5.523 0 10-4.477 10-10S17.523 2 12 2 2 6.477 2 12s4.477 10 10 10Zm3-12a3 3 0 1 1-6 0 3 3 0 0 1 6 0Zm-9 7a7.489 7.489 0 0 1 6-3 7.489 7.489 0 0 1 6 3 7.489 7.489 0 0 1-6 3 7.489 7.489 0 0 1-6-3Z"/></symbol><symbol id="icon-logout" viewBox="0 0 24 24"><path d="M4 12a1 1 0 0 0 1 1h7.59l-2.3 2.29a1 1 0 0 0 0 1.42 1 1 0 0 0 1.42 0l4-4a1 1 0 0 0 .21-.33 1 1 0 0 0 0-.76 1 1 0 0 0-.21-.33l-4-4a1 1 0 1 0-1.42 1.42l2.3 2.29H5a1 1 0 0 0-1 1ZM17 2H7a3 3 0 0 0-3 3v3a1 1 0 0 0 2 0V5a1 1 0 0 1 1-1h10a1 1 0 0 1 1 1v14a1 1 0 0 1-1 1H7a1 1 0 0 1-1-1v-3a1 1 0 0 0-2 0v3a3 3 0 0 0 3 3h10a3 3 0 0 0 3-3V5a3 3 0 0 0-3-3Z"/></symbol><symbol id="icon-eye" viewBox="0 0 20 20"><path d="M10 4.4C3.439 4.4 0 9.232 0 10c0 .766 3.439 5.6 10 5.6s10-4.834 10-5.6c0-.768-3.44-5.6-10-5.6zm0 9.907c-2.455 0-4.445-1.928-4.445-4.307S7.545 5.691 10 5.691s4.444 1.93 4.444 4.309-1.989 4.307-4.444 4.307zM10 10c-.407-.447.663-2.154 0-2.154-1.228 0-2.223.965-2.223 2.154s.995 2.154 2.223 2.154c1.227 0 2.223-.965 2.223-2.154 0-.547-1.877.379-2.223 0z"/></symbol></defs></svg>