<svg aria-hidden="true" style="width:0;height:0;position:absolute;overflow:hidden" xmlns="http://www.w3.org/2000/svg"><defs><symbol id="icon-right-arrow" viewBox="0 0 32 32"><path d="m15.057 23.057 1.885 1.885 8.943-8.943-8.943-8.943-1.885 1.885 5.724 5.724H8v2.667h12.781z"/></symbol><symbol id="icon-left-arrow" viewBox="0 0 32 32"><path d="m16.943 23.057-5.724-5.724H24v-2.667H11.219l5.724-5.724-1.885-1.885L6.115 16l8.943 8.943z"/></symbol><symbol id="icon-sun" viewBox="0 0 32 32"><path d="M15.982 25.181c-5.072 0-9.199-4.127-9.199-9.199s4.127-9.199 9.199-9.199 9.199 4.127 9.199 9.199a9.19 9.19 0 0 1-1.292 4.704 9.25 9.25 0 0 1-7.906 4.495zm0-16.992c-4.297 0-7.794 3.496-7.794 7.794s3.496 7.793 7.794 7.793a7.835 7.835 0 0 0 6.699-3.809 7.787 7.787 0 0 0 1.094-3.984c0-4.297-3.496-7.793-7.793-7.793zM15.982 5.397a.703.703 0 0 1-.703-.702V.879a.703.703 0 0 1 1.405 0v3.816a.702.702 0 0 1-.703.702zM15.982 31.788a.703.703 0 0 1-.703-.703v-3.816a.703.703 0 0 1 1.405 0v3.816a.703.703 0 0 1-.703.703zM4.694 16.685H.878a.703.703 0 0 1 0-1.406h3.816a.702.702 0 0 1 0 1.406zM31.086 16.685H27.27a.703.703 0 0 1 0-1.406h3.816a.703.703 0 0 1 0 1.406zM23.964 8.703a.703.703 0 0 1-.497-1.199l2.698-2.698a.703.703 0 0 1 .993.993L24.46 8.497a.701.701 0 0 1-.497.206zM5.302 27.364a.701.701 0 0 1-.497-1.199l2.698-2.698a.703.703 0 0 1 .993.993l-2.698 2.698a.701.701 0 0 1-.497.206zM8 8.703a.701.701 0 0 1-.497-.206L4.805 5.799a.703.703 0 0 1 .993-.993l2.698 2.698a.703.703 0 0 1-.497 1.199zM26.662 27.364a.703.703 0 0 1-.497-.206l-2.698-2.698a.703.703 0 0 1 .993-.993l2.698 2.698a.703.703 0 0 1-.497 1.199zM11.663 6.256a.701.701 0 0 1-.649-.434l-1.46-3.526a.702.702 0 1 1 1.298-.538l1.46 3.526a.702.702 0 0 1-.649.972zM21.762 30.639a.703.703 0 0 1-.649-.434l-1.46-3.526a.702.702 0 1 1 1.298-.538l1.46 3.525a.702.702 0 0 1-.648.972zM2.028 22.465a.703.703 0 0 1-.269-1.352l3.526-1.46a.702.702 0 1 1 .538 1.298l-3.526 1.46a.708.708 0 0 1-.268.054zM26.411 12.365a.702.702 0 0 1-.269-1.352l3.525-1.46a.703.703 0 0 1 .538 1.298l-3.525 1.46a.71.71 0 0 1-.269.054zM20.301 6.256a.701.701 0 0 1-.649-.972l1.46-3.526a.701.701 0 1 1 1.298.538l-1.46 3.526a.701.701 0 0 1-.649.434zM10.202 30.639a.702.702 0 0 1-.649-.972l1.46-3.525a.703.703 0 0 1 1.298.538l-1.46 3.525a.703.703 0 0 1-.649.434zM5.553 12.365a.691.691 0 0 1-.269-.054l-3.526-1.46a.703.703 0 0 1 .538-1.298l3.526 1.46a.703.703 0 0 1-.269 1.352zM29.936 22.465a.71.71 0 0 1-.269-.054l-3.525-1.46a.702.702 0 1 1 .538-1.298l3.525 1.46a.702.702 0 0 1-.269 1.352z"/></symbol><symbol id="icon-moon" viewBox="0 0 32 32"><path d="M16.584 31.788c-1.373 0-2.754-.181-4.116-.545-4.077-1.093-7.484-3.707-9.595-7.363S.202 15.966 1.294 11.889a15.697 15.697 0 0 1 7.363-9.595A15.653 15.653 0 0 1 18.56.306a1.054 1.054 0 0 1 .425 1.938 10.65 10.65 0 0 0-3.579 14.4 10.647 10.647 0 0 0 14.259 4.1 1.052 1.052 0 0 1 1.465 1.337 15.653 15.653 0 0 1-6.673 7.582 15.704 15.704 0 0 1-7.875 2.124zM15.54 2.319A13.578 13.578 0 0 0 9.712 4.12c-3.168 1.829-5.434 4.782-6.381 8.316S2.87 19.66 4.699 22.828s4.782 5.434 8.315 6.38a13.61 13.61 0 0 0 10.392-1.368 13.591 13.591 0 0 0 4.474-4.147 12.743 12.743 0 0 1-14.298-5.994A12.746 12.746 0 0 1 15.54 2.32z"/></symbol></defs></svg>