<svg aria-hidden="true" style="width:0;height:0;position:absolute;overflow:hidden" xmlns="http://www.w3.org/2000/svg"><defs><symbol id="icon-film" viewBox="0 0 24 24"><path d="M16 11H8V3h8zm-8 2h8v8H8zM6 6H3V4.18c0-.326.131-.62.346-.834S3.854 3 4.18 3H6zM3 8h3v3H3zm3 8H3v-3h3zm-3 2h3v3H4.18c-.326 0-.62-.131-.834-.346S3 20.146 3 19.82zm18-2h-3v-3h3zm-3 2h3v1.82c0 .326-.131.62-.346.834s-.508.346-.834.346H18zm3-12h-3V3h1.82c.326 0 .62.131.834.346s.346.508.346.834zm2 1V4.18A3.176 3.176 0 0 0 19.82 1H4.18A3.176 3.176 0 0 0 1 4.18v15.64A3.176 3.176 0 0 0 4.18 23h15.64A3.176 3.176 0 0 0 23 19.82zm-5 1h3v3h-3z"/></symbol></defs><defs><symbol id="icon-search" viewBox="0 0 20 20"><path d="M12.9 14.32a7.947 7.947 0 0 1-4.908 1.682 8 8 0 1 1 6.305-3.075l.013-.018 5.35 5.33-1.42 1.42-5.33-5.34zM8 14A6 6 0 1 0 8 2a6 6 0 1 0 0 12z"/></symbol></defs><defs><symbol id="icon-github" viewBox="0 0 32 32"><path d="M16 .395c-8.836 0-16 7.163-16 16 0 7.069 4.585 13.067 10.942 15.182.8.148 1.094-.347 1.094-.77 0-.381-.015-1.642-.022-2.979-4.452.968-5.391-1.888-5.391-1.888-.728-1.849-1.776-2.341-1.776-2.341-1.452-.993.11-.973.11-.973 1.606.113 2.452 1.649 2.452 1.649 1.427 2.446 3.743 1.739 4.656 1.33.143-1.034.558-1.74 1.016-2.14-3.554-.404-7.29-1.777-7.29-7.907 0-1.747.625-3.174 1.649-4.295-.166-.403-.714-2.03.155-4.234 0 0 1.344-.43 4.401 1.64a15.353 15.353 0 0 1 4.005-.539c1.359.006 2.729.184 4.008.539 3.054-2.07 4.395-1.64 4.395-1.64.871 2.204.323 3.831.157 4.234 1.026 1.12 1.647 2.548 1.647 4.295 0 6.145-3.743 7.498-7.306 7.895.574.497 1.085 1.47 1.085 2.963 0 2.141-.019 3.864-.019 4.391 0 .426.288.925 1.099.768C27.421 29.457 32 23.462 32 16.395c0-8.837-7.164-16-16-16z"/></symbol><symbol id="icon-linkedin" viewBox="0 0 32 32"><path d="M29 0H3C1.35 0 0 1.35 0 3v26c0 1.65 1.35 3 3 3h26c1.65 0 3-1.35 3-3V3c0-1.65-1.35-3-3-3zM12 26H8V12h4v14zm-2-16c-1.106 0-2-.894-2-2s.894-2 2-2c1.106 0 2 .894 2 2s-.894 2-2 2zm16 16h-4v-8c0-1.106-.894-2-2-2s-2 .894-2 2v8h-4V12h4v2.481C18.825 13.35 20.087 12 21.5 12c2.488 0 4.5 2.238 4.5 5v9z"/></symbol></defs></svg>