<svg aria-hidden="true" style="position: absolute; width: 0; height: 0; overflow: hidden;" version="1.1" xmlns="http://www.w3.org/2000/svg" xmlns:xlink="http://www.w3.org/1999/xlink">
<defs>
<symbol id="icon-film" viewBox="0 0 24 24">
<path d="M16 11h-8v-8h8zM8 13h8v8h-8zM6 6h-3v-1.82c0-0.326 0.131-0.62 0.346-0.834s0.508-0.346 0.834-0.346h1.82zM3 8h3v3h-3zM6 16h-3v-3h3zM3 18h3v3h-1.82c-0.326 0-0.62-0.131-0.834-0.346s-0.346-0.508-0.346-0.834zM21 16h-3v-3h3zM18 18h3v1.82c0 0.326-0.131 0.62-0.346 0.834s-0.508 0.346-0.834 0.346h-1.82zM21 6h-3v-3h1.82c0.326 0 0.62 0.131 0.834 0.346s0.346 0.508 0.346 0.834zM23 7v-2.82c0-0.878-0.357-1.674-0.931-2.249s-1.371-0.931-2.249-0.931h-15.64c-0.878 0-1.674 0.357-2.249 0.931s-0.931 1.371-0.931 2.249v15.64c0 0.878 0.357 1.674 0.931 2.249s1.371 0.931 2.249 0.931h15.64c0.878 0 1.674-0.357 2.249-0.931s0.931-1.371 0.931-2.249zM18 8h3v3h-3z"></path>
</symbol>
</defs>
<defs>
<symbol id="icon-search" viewBox="0 0 20 20">
<path d="M12.9 14.32c-1.34 1.049-3.050 1.682-4.908 1.682-4.418 0-8-3.582-8-8s3.582-8 8-8c4.418 0 8 3.582 8 8 0 1.858-0.633 3.567-1.695 4.925l0.013-0.018 5.35 5.33-1.42 1.42-5.33-5.34zM8 14c3.314 0 6-2.686 6-6s-2.686-6-6-6v0c-3.314 0-6 2.686-6 6s2.686 6 6 6v0z"></path>
</symbol>
</defs>
</svg>
