<svg aria-hidden="true" style="position: absolute; width: 0; height: 0; overflow: hidden;" version="1.1" xmlns="http://www.w3.org/2000/svg" xmlns:xlink="http://www.w3.org/1999/xlink">
<defs>
<symbol id="icon-right-arrow" viewBox="0 0 32 32">
<path d="M15.057 23.057l1.885 1.885 8.943-8.943-8.943-8.943-1.885 1.885 5.724 5.724h-12.781v2.667h12.781z"></path>
</symbol>
<symbol id="icon-left-arrow" viewBox="0 0 32 32">
<path d="M16.943 23.057l-5.724-5.724h12.781v-2.667h-12.781l5.724-5.724-1.885-1.885-8.943 8.943 8.943 8.943z"></path>
</symbol>
<symbol id="icon-sun" viewBox="0 0 32 32">
<path d="M15.982 25.181c-5.072 0-9.199-4.127-9.199-9.199s4.127-9.199 9.199-9.199c5.072 0 9.199 4.127 9.199 9.199 0 1.66-0.447 3.286-1.292 4.704-1.653 2.772-4.682 4.495-7.906 4.495zM15.982 8.189c-4.297 0-7.794 3.496-7.794 7.794s3.496 7.793 7.794 7.793c2.732 0 5.299-1.459 6.699-3.809 0.715-1.2 1.094-2.578 1.094-3.984 0-4.297-3.496-7.793-7.793-7.793z"></path>
<path d="M15.982 5.397c-0.388 0-0.703-0.315-0.703-0.702v-3.816c0-0.388 0.315-0.703 0.703-0.703s0.702 0.315 0.702 0.703v3.816c0 0.388-0.315 0.702-0.703 0.702z"></path>
<path d="M15.982 31.788c-0.388 0-0.703-0.315-0.703-0.703v-3.816c0-0.388 0.315-0.703 0.703-0.703s0.702 0.315 0.702 0.703v3.816c0 0.388-0.315 0.703-0.703 0.703z"></path>
<path d="M4.694 16.685h-3.816c-0.388 0-0.703-0.315-0.703-0.703s0.315-0.703 0.703-0.703h3.816c0.388 0 0.702 0.315 0.702 0.703s-0.315 0.703-0.702 0.703z"></path>
<path d="M31.086 16.685h-3.816c-0.388 0-0.703-0.315-0.703-0.703s0.315-0.703 0.703-0.703h3.816c0.388 0 0.703 0.315 0.703 0.703s-0.315 0.703-0.703 0.703z"></path>
<path d="M23.964 8.703c-0.18 0-0.359-0.069-0.497-0.206-0.274-0.274-0.274-0.719 0-0.993l2.698-2.698c0.274-0.274 0.719-0.274 0.993 0s0.274 0.719 0 0.993l-2.698 2.698c-0.137 0.137-0.317 0.206-0.497 0.206z"></path>
<path d="M5.302 27.364c-0.18 0-0.36-0.069-0.497-0.206-0.274-0.274-0.274-0.719 0-0.993l2.698-2.698c0.274-0.274 0.719-0.274 0.993 0s0.274 0.719 0 0.993l-2.698 2.698c-0.137 0.137-0.317 0.206-0.497 0.206z"></path>
<path d="M8 8.703c-0.18 0-0.36-0.069-0.497-0.206l-2.698-2.698c-0.274-0.274-0.274-0.719 0-0.993s0.719-0.274 0.993 0l2.698 2.698c0.274 0.274 0.274 0.719 0 0.993-0.137 0.137-0.317 0.206-0.497 0.206z"></path>
<path d="M26.662 27.364c-0.18 0-0.359-0.069-0.497-0.206l-2.698-2.698c-0.274-0.274-0.274-0.719 0-0.993s0.719-0.274 0.993 0l2.698 2.698c0.274 0.274 0.274 0.719 0 0.993-0.137 0.137-0.317 0.206-0.497 0.206z"></path>
<path d="M11.663 6.256c-0.276 0-0.537-0.163-0.649-0.434l-1.46-3.526c-0.149-0.359 0.022-0.769 0.38-0.918s0.769 0.022 0.918 0.38l1.46 3.526c0.149 0.359-0.022 0.769-0.38 0.918-0.088 0.036-0.179 0.054-0.269 0.054z"></path>
<path d="M21.762 30.639c-0.276 0-0.537-0.164-0.649-0.434l-1.46-3.526c-0.149-0.359 0.022-0.769 0.38-0.918 0.359-0.148 0.769 0.022 0.918 0.38l1.46 3.525c0.149 0.359-0.022 0.769-0.38 0.918-0.088 0.037-0.179 0.054-0.268 0.054z"></path>
<path d="M2.028 22.465c-0.276 0-0.537-0.164-0.649-0.434-0.149-0.359 0.022-0.769 0.38-0.918l3.526-1.46c0.359-0.149 0.769 0.022 0.918 0.38s-0.022 0.769-0.38 0.918l-3.526 1.46c-0.088 0.036-0.179 0.054-0.268 0.054z"></path>
<path d="M26.411 12.365c-0.276 0-0.537-0.163-0.649-0.434-0.149-0.359 0.022-0.769 0.38-0.918l3.525-1.46c0.359-0.148 0.769 0.022 0.918 0.38s-0.022 0.769-0.38 0.918l-3.525 1.46c-0.088 0.036-0.179 0.054-0.269 0.054z"></path>
<path d="M20.301 6.256c-0.090 0-0.181-0.017-0.269-0.054-0.359-0.148-0.529-0.559-0.38-0.918l1.46-3.526c0.149-0.359 0.558-0.529 0.918-0.38 0.359 0.148 0.529 0.559 0.38 0.918l-1.46 3.526c-0.112 0.271-0.373 0.434-0.649 0.434z"></path>
<path d="M10.202 30.639c-0.090 0-0.181-0.018-0.269-0.054-0.359-0.149-0.529-0.56-0.38-0.918l1.46-3.525c0.148-0.358 0.559-0.528 0.918-0.38s0.529 0.56 0.38 0.918l-1.46 3.525c-0.112 0.27-0.373 0.434-0.649 0.434z"></path>
<path d="M5.553 12.365c-0.090 0-0.181-0.017-0.269-0.054l-3.526-1.46c-0.358-0.149-0.529-0.56-0.38-0.918s0.558-0.529 0.918-0.38l3.526 1.46c0.358 0.149 0.529 0.56 0.38 0.918-0.112 0.27-0.373 0.434-0.649 0.434z"></path>
<path d="M29.936 22.465c-0.090 0-0.181-0.018-0.269-0.054l-3.525-1.46c-0.359-0.149-0.529-0.56-0.38-0.918s0.558-0.529 0.918-0.38l3.525 1.46c0.359 0.149 0.529 0.56 0.38 0.918-0.112 0.27-0.373 0.434-0.649 0.434z"></path>
</symbol>
<symbol id="icon-moon" viewBox="0 0 32 32">
<path d="M16.584 31.788c-1.373 0-2.754-0.181-4.116-0.545-4.077-1.093-7.484-3.707-9.595-7.363s-2.671-7.914-1.579-11.991c1.092-4.077 3.707-7.484 7.363-9.595 3.021-1.745 6.445-2.432 9.903-1.988 0.442 0.057 0.8 0.385 0.895 0.819s-0.093 0.882-0.47 1.119c-4.897 3.068-6.469 9.393-3.579 14.4v0c2.89 5.006 9.154 6.808 14.259 4.1 0.392-0.209 0.875-0.148 1.203 0.152s0.434 0.774 0.262 1.185c-1.344 3.216-3.651 5.838-6.673 7.582-2.434 1.406-5.137 2.124-7.875 2.124zM15.54 2.319c-2.039 0.148-4.017 0.755-5.828 1.801-3.168 1.829-5.434 4.782-6.381 8.316s-0.461 7.224 1.368 10.392 4.782 5.434 8.315 6.38c3.533 0.947 7.224 0.46 10.392-1.368 1.811-1.046 3.326-2.455 4.474-4.147-5.461 1.438-11.346-0.883-14.298-5.994v0c-2.95-5.111-2.016-11.369 1.958-15.379z"></path>
</symbol>
<symbol id="icon-github" viewBox="0 0 32 32">
<path d="M16 0.395c-8.836 0-16 7.163-16 16 0 7.069 4.585 13.067 10.942 15.182 0.8 0.148 1.094-0.347 1.094-0.77 0-0.381-0.015-1.642-0.022-2.979-4.452 0.968-5.391-1.888-5.391-1.888-0.728-1.849-1.776-2.341-1.776-2.341-1.452-0.993 0.11-0.973 0.11-0.973 1.606 0.113 2.452 1.649 2.452 1.649 1.427 2.446 3.743 1.739 4.656 1.33 0.143-1.034 0.558-1.74 1.016-2.14-3.554-0.404-7.29-1.777-7.29-7.907 0-1.747 0.625-3.174 1.649-4.295-0.166-0.403-0.714-2.030 0.155-4.234 0 0 1.344-0.43 4.401 1.64 1.276-0.355 2.645-0.532 4.005-0.539 1.359 0.006 2.729 0.184 4.008 0.539 3.054-2.070 4.395-1.64 4.395-1.64 0.871 2.204 0.323 3.831 0.157 4.234 1.026 1.12 1.647 2.548 1.647 4.295 0 6.145-3.743 7.498-7.306 7.895 0.574 0.497 1.085 1.47 1.085 2.963 0 2.141-0.019 3.864-0.019 4.391 0 0.426 0.288 0.925 1.099 0.768 6.354-2.118 10.933-8.113 10.933-15.18 0-8.837-7.164-16-16-16z"></path>
</symbol>
<symbol id="icon-linkedin" viewBox="0 0 32 32">
<path d="M29 0h-26c-1.65 0-3 1.35-3 3v26c0 1.65 1.35 3 3 3h26c1.65 0 3-1.35 3-3v-26c0-1.65-1.35-3-3-3zM12 26h-4v-14h4v14zM10 10c-1.106 0-2-0.894-2-2s0.894-2 2-2c1.106 0 2 0.894 2 2s-0.894 2-2 2zM26 26h-4v-8c0-1.106-0.894-2-2-2s-2 0.894-2 2v8h-4v-14h4v2.481c0.825-1.131 2.087-2.481 3.5-2.481 2.488 0 4.5 2.238 4.5 5v9z"></path>
</symbol>



</defs>
</svg>
