<svg aria-hidden="true" style="position: absolute; width: 0; height: 0; overflow: hidden;" version="1.1" xmlns="http://www.w3.org/2000/svg" xmlns:xlink="http://www.w3.org/1999/xlink">
<defs>
<symbol id="icon-right-arrow" viewBox="0 0 32 32">
<path d="M15.057 23.057l1.885 1.885 8.943-8.943-8.943-8.943-1.885 1.885 5.724 5.724h-12.781v2.667h12.781z"></path>
</symbol>
<symbol id="icon-left-arrow" viewBox="0 0 32 32">
<path d="M16.943 23.057l-5.724-5.724h12.781v-2.667h-12.781l5.724-5.724-1.885-1.885-8.943 8.943 8.943 8.943z"></path>
</symbol>
<symbol id="icon-sun" viewBox="0 0 32 32">
<path d="M15.982 25.181c-5.072 0-9.199-4.127-9.199-9.199s4.127-9.199 9.199-9.199c5.072 0 9.199 4.127 9.199 9.199 0 1.66-0.447 3.286-1.292 4.704-1.653 2.772-4.682 4.495-7.906 4.495zM15.982 8.189c-4.297 0-7.794 3.496-7.794 7.794s3.496 7.793 7.794 7.793c2.732 0 5.299-1.459 6.699-3.809 0.715-1.2 1.094-2.578 1.094-3.984 0-4.297-3.496-7.793-7.793-7.793z"></path>
<path d="M15.982 5.397c-0.388 0-0.703-0.315-0.703-0.702v-3.816c0-0.388 0.315-0.703 0.703-0.703s0.702 0.315 0.702 0.703v3.816c0 0.388-0.315 0.702-0.703 0.702z"></path>
<path d="M15.982 31.788c-0.388 0-0.703-0.315-0.703-0.703v-3.816c0-0.388 0.315-0.703 0.703-0.703s0.702 0.315 0.702 0.703v3.816c0 0.388-0.315 0.703-0.703 0.703z"></path>
<path d="M4.694 16.685h-3.816c-0.388 0-0.703-0.315-0.703-0.703s0.315-0.703 0.703-0.703h3.816c0.388 0 0.702 0.315 0.702 0.703s-0.315 0.703-0.702 0.703z"></path>
<path d="M31.086 16.685h-3.816c-0.388 0-0.703-0.315-0.703-0.703s0.315-0.703 0.703-0.703h3.816c0.388 0 0.703 0.315 0.703 0.703s-0.315 0.703-0.703 0.703z"></path>
<path d="M23.964 8.703c-0.18 0-0.359-0.069-0.497-0.206-0.274-0.274-0.274-0.719 0-0.993l2.698-2.698c0.274-0.274 0.719-0.274 0.993 0s0.274 0.719 0 0.993l-2.698 2.698c-0.137 0.137-0.317 0.206-0.497 0.206z"></path>
<path d="M5.302 27.364c-0.18 0-0.36-0.069-0.497-0.206-0.274-0.274-0.274-0.719 0-0.993l2.698-2.698c0.274-0.274 0.719-0.274 0.993 0s0.274 0.719 0 0.993l-2.698 2.698c-0.137 0.137-0.317 0.206-0.497 0.206z"></path>
<path d="M8 8.703c-0.18 0-0.36-0.069-0.497-0.206l-2.698-2.698c-0.274-0.274-0.274-0.719 0-0.993s0.719-0.274 0.993 0l2.698 2.698c0.274 0.274 0.274 0.719 0 0.993-0.137 0.137-0.317 0.206-0.497 0.206z"></path>
<path d="M26.662 27.364c-0.18 0-0.359-0.069-0.497-0.206l-2.698-2.698c-0.274-0.274-0.274-0.719 0-0.993s0.719-0.274 0.993 0l2.698 2.698c0.274 0.274 0.274 0.719 0 0.993-0.137 0.137-0.317 0.206-0.497 0.206z"></path>
<path d="M11.663 6.256c-0.276 0-0.537-0.163-0.649-0.434l-1.46-3.526c-0.149-0.359 0.022-0.769 0.38-0.918s0.769 0.022 0.918 0.38l1.46 3.526c0.149 0.359-0.022 0.769-0.38 0.918-0.088 0.036-0.179 0.054-0.269 0.054z"></path>
<path d="M21.762 30.639c-0.276 0-0.537-0.164-0.649-0.434l-1.46-3.526c-0.149-0.359 0.022-0.769 0.38-0.918 0.359-0.148 0.769 0.022 0.918 0.38l1.46 3.525c0.149 0.359-0.022 0.769-0.38 0.918-0.088 0.037-0.179 0.054-0.268 0.054z"></path>
<path d="M2.028 22.465c-0.276 0-0.537-0.164-0.649-0.434-0.149-0.359 0.022-0.769 0.38-0.918l3.526-1.46c0.359-0.149 0.769 0.022 0.918 0.38s-0.022 0.769-0.38 0.918l-3.526 1.46c-0.088 0.036-0.179 0.054-0.268 0.054z"></path>
<path d="M26.411 12.365c-0.276 0-0.537-0.163-0.649-0.434-0.149-0.359 0.022-0.769 0.38-0.918l3.525-1.46c0.359-0.148 0.769 0.022 0.918 0.38s-0.022 0.769-0.38 0.918l-3.525 1.46c-0.088 0.036-0.179 0.054-0.269 0.054z"></path>
<path d="M20.301 6.256c-0.090 0-0.181-0.017-0.269-0.054-0.359-0.148-0.529-0.559-0.38-0.918l1.46-3.526c0.149-0.359 0.558-0.529 0.918-0.38 0.359 0.148 0.529 0.559 0.38 0.918l-1.46 3.526c-0.112 0.271-0.373 0.434-0.649 0.434z"></path>
<path d="M10.202 30.639c-0.090 0-0.181-0.018-0.269-0.054-0.359-0.149-0.529-0.56-0.38-0.918l1.46-3.525c0.148-0.358 0.559-0.528 0.918-0.38s0.529 0.56 0.38 0.918l-1.46 3.525c-0.112 0.27-0.373 0.434-0.649 0.434z"></path>
<path d="M5.553 12.365c-0.090 0-0.181-0.017-0.269-0.054l-3.526-1.46c-0.358-0.149-0.529-0.56-0.38-0.918s0.558-0.529 0.918-0.38l3.526 1.46c0.358 0.149 0.529 0.56 0.38 0.918-0.112 0.27-0.373 0.434-0.649 0.434z"></path>
<path d="M29.936 22.465c-0.090 0-0.181-0.018-0.269-0.054l-3.525-1.46c-0.359-0.149-0.529-0.56-0.38-0.918s0.558-0.529 0.918-0.38l3.525 1.46c0.359 0.149 0.529 0.56 0.38 0.918-0.112 0.27-0.373 0.434-0.649 0.434z"></path>
</symbol>
<symbol id="icon-moon" viewBox="0 0 32 32">
<path d="M16.584 31.788c-1.373 0-2.754-0.181-4.116-0.545-4.077-1.093-7.484-3.707-9.595-7.363s-2.671-7.914-1.579-11.991c1.092-4.077 3.707-7.484 7.363-9.595 3.021-1.745 6.445-2.432 9.903-1.988 0.442 0.057 0.8 0.385 0.895 0.819s-0.093 0.882-0.47 1.119c-4.897 3.068-6.469 9.393-3.579 14.4v0c2.89 5.006 9.154 6.808 14.259 4.1 0.392-0.209 0.875-0.148 1.203 0.152s0.434 0.774 0.262 1.185c-1.344 3.216-3.651 5.838-6.673 7.582-2.434 1.406-5.137 2.124-7.875 2.124zM15.54 2.319c-2.039 0.148-4.017 0.755-5.828 1.801-3.168 1.829-5.434 4.782-6.381 8.316s-0.461 7.224 1.368 10.392 4.782 5.434 8.315 6.38c3.533 0.947 7.224 0.46 10.392-1.368 1.811-1.046 3.326-2.455 4.474-4.147-5.461 1.438-11.346-0.883-14.298-5.994v0c-2.95-5.111-2.016-11.369 1.958-15.379z"></path>
</symbol>



</defs>
</svg>
